/* XPM */
static char *blob[] = {
/* width height num_colors chars_per_pixel */
"    96    96        2            1",
/* colors */
". c #ffffff",
"# c #000000",
/* pixels */
"................##............###..#.......#.......###.#....##........#.......#.................",
".................#............##...#.......##......##..#.....#........#.......#.................",
"................................##....#....#..#.........##.##...##.##......##...................",
".................................#....#....#.##..........#.#.....#.#.......#....................",
"..........................#..#......#.#..#.#..#..#..#....#.#....................................",
".......................#..#..#.....#....###.....#..###....#.....................................",
"..#...............#.............##....#....####....###.##...#####.#..##......##.................",
"....#....#....#....###.#..#.#.....##...#.....##.##.###...#....##...#...#........##..............",
".....#........#.....#...#.#.#....#.#.#..#.#..#.#..#..#..##....#.#..#..#.#..#...#................",
"...........................#....##...#..###.#..##.#...#.###.#...##....#.....#..#................",
"................##....#.##....##..#...##...#.##..#.....#...#####...##.......##........#.##......",
".............#....#...#...##....##.#...##..#..#.######..#.......##...##..##......#..............",
"......#..#........#...#.#..##.#.#.###.#.#.#.###..##..#.###..#....#...#..###..#...#.......#......",
"......#.##.....##......#...#..##..##..#.###.###...#...####.###..###......##.##....#.....##......",
"......#..#.....#.......##..##.###.###.#.###..##...#...####.###...##.....###..#....#......#......",
"...#..........#...#...#...#..#..##.#..##...##.####.###..##.#..###..####....##..#.............##.",
"....#.....#.#.#..#....#..#.#.#.#..#.##.#.####.#.##.###.#.#.###..#.#.#.#..##...#....##..#.....#..",
"..........##....##....#.##.#.###.##..#..##.###...#.#.#####.###..###.....###..##....###.#........",
"....##......##...#....#.#...#...###.####.....##.###...#..##..###..#####..##.#..##.......##......",
"........#.....#...#...#.######....#.##.#########..####.##.#..####..##.#.###.##.#..#..........##.",
".....#...#...#.#..#...#.#...#.#.####..#.###.#.######.#.##.##.####.#.#.#.#.#.#.#.#.#...#..#...#..",
"....#.......#..##.#.#..#.#....#######.#.###..######..#####.########.##.#...#..#..#....#..#......",
"..#....##.###....#.####.######...#.###########.#..#####..###..##..##..#.###.##....#.......#.....",
"..#....#..##....##.####.######..##.###########.#..#####.#####.###.###.#.###.##....#.......#.....",
"..#..#..#.#.#.#..#..#.#..#.###.#.#.###.#######.##.##########..###.##..##.#.#..#...#...#...##....",
".....#........#.#.....##.#.###########.##########.###########.####.##.##...##.#...#...#.....#...",
"......#.#####..#.##...###.#..#...#.####..#########.###.###############.##..#..###.#....##...###.",
"##.#........#..#..####.###.#########..#####.############..#.##..##.#..#..####.#...#...#...#.....",
"....#.#..#...#.##.##.#.#.#.###..##.###########################.###.###.####.###.#.###.#..#.....#",
"......#.#...##.#..#...#.###..#..##.###################################.####..##..#..##..#......#",
"...##..#.....#.##.####.####.#######..#########.############..#####.#####...##.#...#...#....##...",
".....#..##....#..#.###.######################################.#####.##.#####..###.#...#.##.....#",
"#....#...#...##.##.###.#.###.######################################.##.####.##.#..#...#.#.......",
"##....#.##..###.#######.###.###########################################..##.##.##.#....#...##...",
"##....#.#....##..######.###..##########################################.###..#.#..#....##..#....",
"...#...#.#####.##.#..#####.######.##############################.####.#######.###.#...#....#....",
"....#..#...#.#.#..#...#.##.######.###############################.##..###.###.###.###.#.#...##..",
".....#........###.##.##.###.######.##################################.##...###..##.###.###...##.",
"##....###.###..#######################################################.####..##.##.###...#......",
"..#.##..##..###..##..##.#####################################################.#..##...#.##.#....",
"..#...#..#.#.#.#.#.#.##################################################.####.####.#...#...#.....",
"......###.####.###.####################################################.###.####..#...##..#....#",
"##.##..#.....#####.####..#.#################################################..###.#..###...##..#",
".....#.###...##.###...########################################################.#..#...#.##.#....",
"....##.###....#.###...########################################################.##.#...#.#..#....",
".....#..#....##.###.#.########################################################.#.##...#.##.#....",
"###.......####.##..################################################..##..##..######....#..#.....",
"...#..##..###.#.######.###.###################################################.##..####.##..###.",
"..#.#.###.#.#.####.###.###.##############################################.####.##..###.#.#...##.",
"..#...#..#...#####.######################################################..###.###.##..#..#.###.",
"...##.#.##....#..##...##############################################..#########..##...#.##.....#",
".....#.#..####.########.#################################################..#..###.#...#...##....",
"..#..#.#..###.###.##.####################################################.#####.#.##.#.#..#.#.#.",
"..#...#..###..##.##...#########################################################.##.###.#.....##.",
"...##..##.###.#.########..##########################################..##...#..#####...#.###.....",
"...#...#..##..#..########.###########################################.###..#..#####...#.###.....",
"...#..#.##.##.##.###.####################################################.###.####.####..##.#.#.",
"...#..#..#..##.#..#...######################################################.##..#.#.##...#..##.",
"..#...#...#######.####.##..############################################..######.###....##.......",
"....##.######...###...###############################################.#####.##.###.##..#..#.###.",
"..#.....#.###.#.#.#####.###.###############################################.##..##.###.##.#...#.",
"..#...#...######.######.###.###############################################.####.#.###.#...##...",
"...##.#.......#.#..####..#############################################.#####..##..####.###...##.",
"...#..#.####..##.##...#######.####################################.#####...###.###....#...#.....",
"#...#.#.#..#.#.##.##.#####.#######################################.####.##.##.#.##.#.#.#..#..##.",
"##.....#....##.#..#####..#.############################################.####..#.##.###.##...###.",
"##.....##....#.#.######.##.############################################..####.#..#.###.#.....##.",
"...#...#..##..#.###..#########..#############################.#####.########..#.##.###.#..#.###.",
"...#...#..###.#..###.#.##.####.###.##########################.#.####.########.#.#..###..#.#..#.#",
"...#...#..##.##...####.#.#########.###########################..#####.#..###.##.##..#..........#",
"......#.....#..###.####.#..#..########.#########################..#####.###.###..#....#.##.##...",
"#..#...#..##.##...#...#.########.##############.#######.##.########.##.#######.#..#....#........",
"#...#..##..#.#.#..#...##..###.###.#######.########.#######.###.####.##.#.#.##.#.##.#.#..#.#.....",
".......#.....#.##.#...###..#.######..###...#######.########.##...##..##....#..#..#.##.....#.....",
"..#.....##....##..#..#####.###....###.#####..##########..#####..###.###.###.##..##....###..##...",
"....#..#..##....##.##...###.#######.###.#######.##.#######.#####..##.###...#..##..#............#",
"....##.#..###....#.###...##..######..##.#######..#.#######.######.###.###..##.###.#............#",
".....#.#..##....##.##...###.###.####.##.##########.#######.#####.###..##...#.###.##.............",
"............##.#..#...##..#.#...#####.######..#####...#..###..####.###..###.#....#....#...#.....",
"..#....#.....#....#....##.#.####..####.#...###.###########.##.###.#.##.#...#.##...#....##.......",
"..#.....#....#....#....#..#..####.##.#.###.###.#.#.###.###.#####..##.#.#...#..#...#.#...#.......",
".........#....##..#.#..##.#...##.##.#######..##.##.##..###.######.###..#...#..#.#..###...#......",
"...##..........#...####.##.##.####.#...#...###.#..#...#..###..##......#........###..........###.",
".......#.....#.##.#......#.###....#####.####..#####...###...##..######.#####..#........#........",
"........#.........#...#.##..##.#..#.##.#...##.##.####.###.#.#.#.#...##..#..##.#.#.#.....#.......",
".........#........#...#..#...####....#.#.#.#.##...####.#####..###....#.....#...#..#......#......",
"............##....#....##.#...#####.##..###.#####..###.#...##.####..##.##.......................",
".............#....#....#..#...#####.#....##..###...###.#...#..####...#.#........................",
"...............#..#.....#.#...#.#.#.#.#.#.##.#.###...#.#.#..##.#.#...#.#......#..#....#.........",
"...............#..........#........#..##...#...####...#.#....#....##..#....##.#..#....#.........",
"##................#..##.##..######.##..##..##.#....###.#.##.##..##.#...##....#..........##......",
"...#...#..##..............#..........#...##..#.#..#.....#..#.....#..##...........#........#.....",
"..........#.#......#.#....#...##..#.##...#..##.##.###....#.##....#....#..#....#...........#.....",
".............#.....##......#..##.##..#.......#.#..####......#.....#...#..##...#.................",
"................##.....##.......#.....#.###...#.......#.##...#..................................",
"..........................#...##.....#..###....#..#....#..#......#.#.......#...................."
};
