/* XPM */
static char *mini-boson[] = {
/* width height num_colors chars_per_pixel */
"    16    16      190            2",
/* colors */
".. c #000000",
".# c #0061ff",
".a c #0062ff",
".b c #0063ff",
".c c #0072ff",
".d c #0073ff",
".e c #0074ff",
".f c #0085ff",
".g c #0086ff",
".h c #0173ff",
".i c #0174ff",
".j c #0264ff",
".k c #0274ff",
".l c #0374ff",
".m c #0465ff",
".n c #0475ff",
".o c #0666ff",
".p c #0676ff",
".q c #0765ff",
".r c #0866ff",
".s c #0a68ff",
".t c #131313",
".u c #151515",
".v c #156eff",
".w c #166fff",
".x c #18191a",
".y c #1970ff",
".z c #287aff",
".A c #297dff",
".B c #515758",
".C c #546b9f",
".D c #57689a",
".E c #586595",
".F c #596695",
".G c #596696",
".H c #5a6695",
".I c #5a6696",
".J c #5b6695",
".K c #5b6796",
".L c #5c6695",
".M c #5c6696",
".N c #5c6796",
".O c #5d6795",
".P c #5d6796",
".Q c #5d6896",
".R c #5d6897",
".S c #5e6896",
".T c #5e6897",
".U c #5e6996",
".V c #5e6997",
".W c #5f6997",
".X c #606997",
".Y c #606a97",
".Z c #606a98",
".0 c #606b98",
".1 c #616997",
".2 c #616a97",
".3 c #616b98",
".4 c #616d9b",
".5 c #626a97",
".6 c #626b98",
".7 c #626d97",
".8 c #636b97",
".9 c #636b98",
"#. c #636e96",
"## c #646c98",
"#a c #646d99",
"#b c #656c98",
"#c c #656d98",
"#d c #666d98",
"#e c #666d99",
"#f c #676d98",
"#g c #676d99",
"#h c #676e97",
"#i c #676e99",
"#j c #676e9a",
"#k c #686c97",
"#l c #686d98",
"#m c #686e99",
"#n c #696e99",
"#o c #696f9a",
"#p c #6a608a",
"#q c #6a6f9a",
"#r c #6b709a",
"#s c #6c709a",
"#t c #6c7195",
"#u c #6c719a",
"#v c #6c729b",
"#w c #6e7286",
"#x c #6f7a7f",
"#y c #71799d",
"#z c #766188",
"#A c #78838f",
"#B c #788487",
"#C c #79809a",
"#D c #7a829a",
"#E c #7c547a",
"#F c #7c898c",
"#G c #7d8aa6",
"#H c #808b91",
"#I c #808c92",
"#J c #825a7d",
"#K c #848f92",
"#L c #848f96",
"#M c #865a7d",
"#N c #889597",
"#O c #89708a",
"#P c #8a7d80",
"#Q c #8a94a3",
"#R c #8a9697",
"#S c #8b919b",
"#T c #8c999f",
"#U c #8d9896",
"#V c #8d9a9c",
"#W c #8e9b9e",
"#X c #8e9ca1",
"#Y c #929fa1",
"#Z c #939d9e",
"#0 c #939ea1",
"#1 c #949fa0",
"#2 c #94a0a3",
"#3 c #96a3a6",
"#4 c #97a0a3",
"#5 c #98a5a8",
"#6 c #9a9b9c",
"#7 c #9aa5a8",
"#8 c #9aa6a8",
"#9 c #9ba6a5",
"a. c #9ba8ab",
"a# c #9ca7a6",
"aa c #9ca7ae",
"ab c #9ca8a7",
"ac c #9ca9ab",
"ad c #9caaac",
"ae c #9daaac",
"af c #9eaaa9",
"ag c #9eaaac",
"ah c #9fabab",
"ai c #9facaf",
"aj c #a0adb0",
"ak c #a6b1b4",
"al c #a6b2b1",
"am c #a6b3b5",
"an c #a9b4b3",
"ao c #a9b5b3",
"ap c #aab7bb",
"aq c #abaaab",
"ar c #adbbbe",
"as c #af7d7f",
"at c #afbdc0",
"au c #b04f50",
"av c #b2c1c4",
"aw c #b4c0bc",
"ax c #b4c0bf",
"ay c #b5b5b4",
"az c #b5c3c4",
"aA c #b63643",
"aB c #b6c2c0",
"aC c #b6c2c1",
"aD c #b7c3c2",
"aE c #b7c3c4",
"aF c #b8c5c4",
"aG c #bac7c7",
"aH c #bbc8c8",
"aI c #bbcacd",
"aJ c #bdcccf",
"aK c #becbca",
"aL c #bfcdd0",
"aM c #c0cdcd",
"aN c #c2ced1",
"aO c #c3d0cf",
"aP c #c3d0d1",
"aQ c #c5d1d4",
"aR c #c5d3d6",
"aS c #c90404",
"aT c #ca6d6c",
"aU c #cad9dc",
"aV c #cedbde",
"aW c #d31419",
"aX c #d90000",
"aY c #df080b",
"aZ c #e22d2e",
"a0 c #e71515",
"a1 c #ed0000",
"a2 c #f00d0d",
"a3 c #f20000",
"a4 c #f50000",
"a5 c #f70808",
"a6 c #fb0000",
"a7 c #ff0000",
/* pixels */
".A.b.#.o.w.v.q.z.y.s.r.#.m.#.a.j",
".e.i.d.kaOa0aW.c.l.n.h.p.c.i.i.k",
".f.g.f.g.gaKa2#O.g.g.f.g.g.g.g.g",
".C.DaI#T#Laiaj#H#M#s#u#r#r#n#d.4",
".N#p#SaL#F#VaXa4a1#J#r#r#r#i#e.9",
".P#EaYavaNa.asauaq#2#D#v#0#m#f##",
".P.U.Z#yaM#K.x..akah#3#x#o#q#i#i",
".P.YaPaQadaC.t.u..ana##Y#C#l#d#b",
".Q.OaFaEaBafab.B#5aZa7a7a3#q#q.Z",
".3#h#4aVawaoal#8#7a5a6aS#k#f#q#f",
".J#w#aaG#9#Z#1az#Xaaama..Q#d.Z.N",
".Q.G.J#c.R.9.2aRap#I#Waeag#Q.M#j",
".3.V.T.Z.6.K#i.WaU#B#NacaHa7#P.0",
".9.E.S.X.Q.I.IaAaJat#R#UaDay#6#t",
".F.Q.H.1.6#e.W#z.War#A.L#naxaT#.",
"#i.R#f.W.Q.Y#m.S.8.J.5#g###G.7.V"
};
