/* XPM */
static char * move_xpm[] = {
"32 32 3 1",
" 	g None",
".	g #FFFFFF",
"+	g #000000",
"............................++++",
"..........................++++++",
".........................+++++++",
"............++++++++....++++++++",
"..........+++......+++.+++++++++",
"........+++..........+++++++++++",
".......++............+++++++++++",
"......++.....++++++.++++++++++++",
".....++....++++...+++++++++++++.",
".....+....++..++...++++++++++...",
"....++...++...++..++++++++++....",
"....+...++....++++++++++++.+....",
"...++...+...++++++++++++...++...",
"...+...++...+.++++++++.++...+...",
"...+...+...++.+++++++...+...+...",
"...+...+...+..+++++++...+...+...",
"...+...+...+..+++++++++.+...+...",
"...+...+...++.+++++++++++...+...",
"...+...++...+......+...++...+...",
"...++...+...+++..+++...+...++...",
"....+...++....++++....++...+....",
"....++...++..........++...++....",
".....+....++........++....+.....",
".....++....+++....+++....++.....",
"......++.....++++++.....++......",
".......++..............++.......",
"........+++..........+++........",
"..........+++......+++..........",
"............++++++++............",
"................................",
"................................",
"................................"};
