/* XPM */
static char * fow_xpm[] = {
"96 96 3 1",
" 	c None",
".	c #FFFFFF",
"+	c #000000",
"................................................................................................",
"................................................................................................",
"................................................................................................",
"................................................................................................",
".......................................+...+..+...+.............................................",
"...................................+.+...+......+...+.+..+...+..................................",
".................................+..........+.+...+....+..+.....................................",
"..........................+..+......+..+..+....+....+......+.+..+.+.............................",
"...........................+..+..+...+.+...++..++.+..+.+.....+........+.........................",
".......................+..........+..+..+.+..+...+.+.+..+.++..+..+.+............................",
"....................+....+..+.+++.+.+..+.+.+..+.+..+..++.+...+..+...+...+.......................",
"............................+....+.+.+..+.+.+.++.+.+.+..+.+.+.+..+...+....+.....................",
"....................+.+.+.+..+.+..+.++.+.+.+.+.+.+.+.++.+.+.+.+.+.+..+.+...+....................",
"...............+.......+.+..+.+.++.+..+++.+++.+++.++..+.++.+.+.+.+.+....+.....+.................",
".................+.+.+..+.+.+.+.+.+.+++..++..++..+.++++.+.+.+.+.+.+.+++.+...+...................",
".................+....+...+.++.+.++.+.+++.+++.+++.+.+.+++.++++.++.+.....+.+....+.+..............",
"........+.........++..+++.+..+++++++++.++++.++.+++++++.+++.+.++.+.+++++.+..+....................",
"....+.......+...+...+.+..+++++.+..+.+.++.+++++++++.++++.+++++.++++..+..+.+..+.+...+.............",
"..............+..+.+.+.+++.+.++++++++++++.+.+++.++++.+++++.+++++.+++.++.+.++...+................",
"..................+.+.+..+++.+.++.++++++++++++++++++++++++++++.++++++.++.+..+...+..+.+..........",
"..........+.+.++.+.++++++.+++++++++++.++++++.+++.++++++.+++.++++.++.++.+.++.++...+..............",
"................+.+...+.++++++++++.++++++++++++++++++++++++++++++++++++++.++..++................",
".......+....+.++.+.+++++.+++.++++++++++++++++++++++++++++++++++++++++.+.++.+.+...+.....+........",
"........+.......+.++.+++.+++++.+++++++++++++++++++++++++++++++++++.+++++.+++.+.+..+.+...........",
".........+.++.+.+.++.++++++++++++++++++++++++++++++++++++++++++++++++++++.+++.++.+..............",
".............+.+.+.+++++++++++++++++++++++++++++++++++++++++++++++++++++++.+.+.+..+.+.+.........",
".........+...+.+.+++++.++++++++++++++++++++++++++++++++++++++++++++++++.+++.+++.+.+.............",
"...........+.+.++..+.++++++++++++++++++++++++++++++++++++++++++++++++++++++++.++.+.+.+.+........",
".......+.+...+..+++++++++++++++++++++++++++++++++++++++++++++++++++++++++++.++.+.+.+....+.......",
"..........+++.+++++.++.++++++++++++++++++++++++++++++++++++++++++++++++++++++++.+...+.+.........",
".....+..+.....+.+.+++++++++++++++++++++++++++++++++++++++++++++++++++++++++.+.++.+++.....+......",
".........+.++.++.+++++++++++++++++++++++++++++++++++++++++++++++++++++++++++++.++.+.+.+.........",
".......+...+.+.+++.++++++++++++++++++++++++++++++++++++++++++++++++++++++++++++.+.++...+.+......",
"........+.+.+++.+++++++++++++++++++++++++++++++++++++++++++++++++++++++++++++.+++..++.+.........",
".....+...+.+.+.++.++.+++++++++++++++++++++++++++++++++++++++++++++++++++++.++++.+++..+.+...+....",
"......+.....+.++++++++++++++++++++++++++++++++++++++++++++++++++++++++++++++++++.+.++...+.......",
".......+.++.+.+.++++++++++++++++++++++++++++++++++++++++++++++++++++++++++++++.+++..+.+..+......",
"........+..+.+.++.++++++++++++++++++++++++++++++++++++++++++++++++++++++++++++++.++.+..+....+...",
"....+.+....+.++.+++++++++++++++++++++++++++++++++++++++++++++++++++++++++++.+++.++.+.++.+.+.....",
".......++.+.+.+.++.+++++++++++++++++++++++++++++++++++++++++++++++++++++++++++++.++.+...........",
".........+.+.++++++++++++++++++++++++++++++++++++++++++++++++++++++++++++++++++++.++.++.+.......",
"....+.+.+.+.++.+.+++.++++++++++++++++++++++++++++++++++++++++++++++++++++++++++.++..+..+.+.+....",
"..........+.+.+++.++++++++++++++++++++++++++++++++++++++++++++++++++++++++++++++.+++.++.........",
"......+.+.+.++.++++++++++++++++++++++++++++++++++++++++++++++++++++++++++++++++++.++..+.+.+.+...",
"..........+.+.+++++++++++++++++++++++++++++++++++++++++++++++++++++++++++++.++++++.++.+.........",
"....+.+.+.+.++..+.++++++++++++++++++++++++++++++++++++++++++++++++++++++++++++++.++.+.+.+.+.....",
"..+.....+..+.+++++++++++++++++++++++++++++++++++++++++++++++++++++++++++++++++.+++.+.+.+.....+..",
"......+..+..+.+.+.+++++++++++++++++++++++++++++++++++++++++++++++++++++++++++++.+.++.+..+.+.....",
".......+..+.+.++++.+++++++++++++++++++++++++++++++++++++++++++++++++++++++++++++++.+.++.........",
"....+...++.+.+.++++++++++++++++++++++++++++++++++++++++++++++++++++++++++++++++++.+.+.+.+.+.+...",
"......+....+.++.+.++++++++++++++++++++++++++++++++++++++++++++++++++++++++++++.+.+++.+..+.......",
"........+.+.+.++++.++++++++++++++++++++++++++++++++++++++++++++++++++++++++++++++..++.+.+.+.....",
"..+..+...+.+.+.+.++++++++++++++++++++++++++++++++++++++++++++++++++++++++++++++++++.+...+.......",
".......+..+.+.+++++.++++++++++++++++++++++++++++++++++++++++++++++++++++++++++.++.+.+++...+.+...",
".....+..+.+.++.++.+++++++++++++++++++++++++++++++++++++++++++++++++++++++++++++.++++....+.......",
"........+....++.++++++++++++++++++++++++++++++++++++++++++++++++++++++++++++++++.+.+++.+.+.+....",
"......+..+++..+++.++++++++++++++++++++++++++++++++++++++++++++++++++++++++++++++++.+.+..........",
"....+.......++.+.++.+++++++++++++++++++++++++++++++++++++++++++++++++++++++++++..+.+.+.++.+.....",
"......+.+.++..+++++++++++++++++++++++++++++++++++++++++++++++++++++++++++++++.++++++.+..........",
"........+...+.+.+.++++++++++++++++++++++++++++++++++++++++++++++++++++++++++++++.+.+.+.+.+..+...",
".........++.+.++++.+++++++++++++++++++++++++++++++++++++++++++++++++++++++++++++.++.+...........",
"......+....+.+..++++.+++++++++++++++++++++++++++++++++++++++++++++++++++++++++.++.++.++.+.+.....",
".......+.+..+.+++.++++++++++++++++++++++++++++++++++++++++++++++++++++++++++.++.++..+..+........",
"..........+..+..+.++++++++++++++++++++++++++++++++++++++++++++++++++++++++++++++.++..+...+......",
"........+..+.++++.+.++++++++++++++++++++++++++++++++++++++++++++++++++++++++++++.++.+.+.........",
"......+...+....+.++++++++++++++++++++++++++++++++++++++++++++++++++++++++++++.+++..+....+..+....",
"........+...+++.++.+.++++++++++++++++++++++++++++++++++++++++++++++++++++++++++..++.+.+.........",
"..........+....+.++++.++++++++++++++++++++++++++++++++++++++++++++++++++++.++.+++.+.+...+.......",
"...........+.+.+.+.+++.++++++++++++++++++++++++++++++++++++++++++++++++++++.++.+.+..+.+.........",
".........+...+..+.+.+++++++++++++++++++++++++++++++++++++++++++++++++++++++++++.+.+.............",
".......+...+..+.++.++.+++++++++++++++++++++++++++++++++++++++++++++++++.+++++.++.+.+.+..+.......",
"............+..+.++.++.+.+++++++++++++++++++++++++++++++++++++++++++++++++.++.+.+.+.............",
"............+...+.+.++++++++++++++++++++++++++++++++++++++++++++++++++++++.++.+...+.+...........",
"..........+..+.+.+.+.+.+.+.++++++++++++++++++++++++++++++++++++++++++++.+++.++.++.....+..+......",
"........+.........+.+++.+++++.+++++++++++++++++++++++++++++++++++++++++++.++..+..+.+............",
"............+.+.+..+..++.+.+++.++++++++++++++++++++++++++++++++++++.+.++++.++.+.+...............",
"...............+.+.++.++.++++++++.++++++++++++++++++++++++++++.+++++++.+.+.++.+..+..............",
".....................+.+++.+.+.+++++++.+++++++++++++++++++++++++++++.++++.+....+..+.+...........",
".............+...+.+.+....+.+++.++.+.+++++.+++.++++.++++++.+.+++.+.++.+..++.++..................",
"...............+...+..+++.+.+.+.+++++.+.+++.++++.+++++.++++++.+++++.++++..+..+.+................",
"...................+.+..+.+.+++.+.++++++.++++.++++.+.+++++++++.+.+++...+.+.+.....+..............",
"................+......+.+.+..++.+..+.+.+++.++++.+++++..+.+.+.++.+..+++.+...+..+................",
"...................+.+..+.+.++..+.+++.+++..++.+.++.+.+++.++++++.+.++...+..+..+..................",
".....................+....+...+.++..++..+++..+.+.+++.+.++.....+.+.+.++..+.......................",
"........................+..+.+....+..++.+.+++.+.+.+.++..+++++.+.+.+...+...+.....................",
"......................+.....+.+.++.+..+..+...++.+..+.++...+..++...+.+...+.......................",
"..........................+....+....+..+.+.++..+.++.+..+++..+..++..+..+.....+...................",
"..........................+......++..+..+....+.+..+..+....+.....+......+.....+...+..............",
"......+................+...+..+....+..+..++..+..+.+..+.++.+.+......+............................",
"....+................................+.....+.......+.........+.+.+..............................",
"................................+.+....+.+...+.+.+....+...+.........................+...........",
".........+.....+...................+..............+.+..+...+......+.............................",
"..........................................+..+...............+..................................",
"................................................+...............................................",
".......................................+...........+...+........................................",
"................................................................................................"};
