/* XPM */
static char *overview_none[] = {
/* width height num_colors chars_per_pixel */
"   100   100       63            1",
/* colors */
". c #6b9c7b",
"# c #ade7c6",
"a c #a5debd",
"b c #94cead",
"c c #8cc6a5",
"d c #84bd9c",
"e c #7bb594",
"f c #73ad8c",
"g c #6ba584",
"h c #63947b",
"i c #84c6a5",
"j c #5a8c73",
"k c #52846b",
"l c #42735a",
"m c #4a7b63",
"n c #bdf7de",
"o c #b5efd6",
"p c #ade7ce",
"q c #94ceb5",
"r c #8cc6ad",
"s c #528c73",
"t c #84bda5",
"u c #396352",
"v c #214a39",
"w c #b5f7de",
"x c #94d6bd",
"y c #84c6ad",
"z c #315a4a",
"A c #295242",
"B c #5a8c7b",
"C c #4a7b6b",
"D c #102921",
"E c #ade7d6",
"F c #4a8473",
"G c #214239",
"H c #73b5a5",
"I c #183931",
"J c #29524a",
"K c #214a42",
"L c #31635a",
"M c #c6fff7",
"N c #d6ffff",
"O c #a5e7e7",
"P c #527b7b",
"Q c #214242",
"R c #081818",
"S c #082121",
"T c #000808",
"U c #7badb5",
"V c #73a5ad",
"W c #73adb5",
"X c #42636b",
"Y c #84b5c6",
"Z c #314a52",
"0 c #5a8494",
"1 c #6b94a5",
"2 c #315a6b",
"3 c #18394a",
"4 c #081821",
"5 c #31526b",
"6 c #29394a",
"7 c #00104a",
"8 c #000000",
/* pixels */
"8888888888888888888888888888888888888888888888888888888888888888888888888888888888888888888888888888",
"8888888888888888888888888888888888888888888888888888888888888888888888888888888888888888888888888888",
"8888888888888888888888888888888888888888888888888888888888888888888888888888888888888888888888888888",
"8888888888888888888888888888888888888888888TF5DX22Q36Q47RTT88888888888888888888888888888888888888888",
"88888888888888888888888888888888888888T433JgkKBsBgBgfHidryxxxw1T888888888888888888888888888888888888",
"888888888888888888888888888888888888I2LLJm#XCjBkBsBjjh.gggffedcpOY0T88888888888888888888888888888888",
"888888888888888888888888888888888TQLJJJzCCvmCkssjjghhgg.hgfefdedcbpM08888888888888888888888888888888",
"88888888888888888888888888888884JQKKKKGAdluCCmmCB.hhhgg.ffffddcrcqbq#wUDT888888888888888888888888888",
"888888888888888888888888888884QQIIIIIIIfjJsssClChBhhhhfffeeedidcccbbqb#MYT88888888888888888888888888",
"888888888888888888888888888IJKKKIIGGQAaAuLCmjhssCkhBhggfffdeddedccbbqqca#MU8888888888888888888888888",
"88888888888888888888888TDIDDIIIDSIGIuCLlulllCCCskkjhhggggffdedccccrbqqabaaq#M28888888888888888888888",
"88888888888888888888884RRSSIIIIISIDG#ZulCXlkCmCmCsjhhghggfeddiccrqbqqaxaaqaaaMP888888888888888888888",
"88888888888888888888TRDSSDIIIIIIIGIHjTlLJlCLmCCmCjhhfgg.ggeedcdccccbbaqqqaaaaaMU88888888888888888888",
"8888888888888888888RRIIIIDISI3IIQGGfRAKuuCuummlmkBhhhhhffeedddcccbqqxbqaqaqaaaanU8888888888888888888",
"888888888888888888RS4SSIDDDIIIIIGAzLurDzmllLClCkkhjhjhhfefgfedddcrcbbbbbqaqqqaaanO888888888888888888",
"8888888888888888TSSDDDDDISIIGQGIGJKhevJLlXlllCkCsjjkjhgff.feedrrqbbbbqbaaaaqaaaaanU88888888888888888",
"888888888888888TSDDIIDIIDIDIIDIGGGmAgIlCmmmCsCCjksjjjhghgffedddbbbbqbbqqqaqaaaa#aanx8888888888888888",
"88888888888888RSIIQKGQIIIIIGIIIQIIhJI8ululClClkCkBjkhjh.hfgfededccrbrqqqqqqqqqaxxaanU888888888888888",
"88888888888888TR4SDDQGQQQGGIGIGGIGGuCdIzLFClCljsCmmkjjjjhhgfedtcctbbbbbqqqbaqaaqaaqanV88888888888888",
"88888888888TTTTRRRRDDISIGDIIIAIIIIIIBkSAzzzuLmkkkjkhsjhBhhfeeddcrbbqxaaa#aaaaa###apa##N8888888888888",
"888888888888RRTRRRRIDGDGDSDIIIIIIGKAsaTzJuzzzCskClCBhjjhj.fetdirbqqqqq#aa#aaaaaaa#ap##Mu888888888888",
"88888888888TRDD4DDDIIIIIIDDDIDIvGIGIleRJumCuuzllCCCkjjhhgfeeeddrqbb#aaa#aa#a##pa#a#ap#aM888888888888",
"88888888888TT4IIIIGIIGIIQQQGIGGKQGGKsqRJllluuuLllmmkkshh.gfedtbqbbqqaapaa#aa###pap####pNT88888888888",
"888888888888TRRDIDKIIIDIDIIIIIGGIIACmRRzLuLluuuLLlCCmjhgeedtdccbbbqaaaqxpaa#aa#apa#####nU88888888888",
"888888888888TTRDSIGIIIIIIDIDIIIGIJgLChzRGAGJuululCCkBjgfeeddidccrxq#aaaaaaaaa#aa#a##p###N88888888888",
"888888888888TDSDDDIISDIIDDDIQIDIGIQIdsRTGAzuAKGzuuLCjg.fedddcccbbqqqqaaaaaaaa#apa#a#####MX8888888888",
"8888888888TRTRDIQDIDIQGIDSRRIGIIIIIIguAKDzuuuvIGulllmsgfedrbrccbqqa#aaa#aa#paap#p#p###p#ox8888888888",
"8888888888TTRRRDIIISIQGISDDDIIGGGKIGDs#TAJKzuIGGzlXlms.efdccccrccbaaaxa#a#aa#p##a###p####M8888888888",
"8888888888TTRRDDDIQQQISDIIIDIGIQGvZJup8IIIAQAQAzuuLCBhgeedccrqbbbqq#axaaaaa#########p###pn0888888888",
"888888888TTTTSDSIDIGIIIIIDDDIQGGJAvIoDTSIGIGGGGAzzlLCjgfdddccbqcbaqaqapa#paa#a#apa#pa##p#n1888888888",
"8888888888TRTRSDSIGQAGIIDIDIJzvzJAGuk8GIIIGzAAAAJzzlkBeedcbcrbbqqqaaaaaaaap#p#p###p#p##p#n0888888888",
"888888888TTTRRDDIIQGGIGDIDIDIzLAAAQKvAKzzAIIJZzGGJzulgggetcrbbbbbqqqaaaxapx###p##p#aa#a##nr888888888",
"8888888888TTRRDIIDIIIQGIDQQIAAAzJAzAAzuvllgGRGJAAJzJLjhgfdcrrbqbqqqbxqaaaa#a##p#p##a#p###oU888888888",
"888888888TTTTTISDR4DSIISDIGQJZAGAJuLzAJgBCzAKvGzuzJvIvmgfdddrrcbcbbbqxqbraaaa#a#aaa#xaaa#pM888888888",
"8888888888TTRTRRDRDRRDSIDIIvJzzzLuzluuuxRvGCkuzIAlGDDSGlgdcddrbbrbbbqqrbaa##aqaaaaaaa#p#p#pO88888888",
"88888888888TRTTRSRRDTRRDGDIGGAuzlLuLlllo8GJCClGIGuIRTRGCfHdcrcbbbccbaaq#aaa#aappppp#papp#p#nX8888888",
"888888888888TRRRRDRDDDDDIIIIDGGuLmlLCjljilDLgLAIGuADR8DChicrbbbqqqaaq#aaaaxaapap##p#aa#apapox8888888",
"88888888888TTTTRSRDRRDDQIDDIJuuzhuCszjhhhremClmlAuGRT8Dgedbbqqaa#popMugdrxqxa#pp#p#pp#jloop#M4888888",
"888888888888TTRTDDSTTGTRRDDIJJIKfr8vBdefffdehggllIDR88DXgfdrba#o#cgmADGfbxbqxa#####podgkGgEwnX888888",
"8888888888TTTRRTRIDTISTRRRDDIGAzlxuDefedffgfegjlJlzT88ABhdbq#qfmAGIIGADgbcbrdqa#p#pp#effmR8gnM888888",
"8888888888888RRRTDIRTTDRDRSDDGQJlmpqzgdeeffeefemGDGjvTuJerxpb.zIzuzAGluTfbxdcqapa#paddfhszTTxO888888",
"888888888888R8TTTDDI8RDDDDDDIIAJulFqmseeeededdbjvIR8RTflraadg.zddAIRRDISutcbtqbapoofdbdegCFGSM188888",
"888888888888TRTTRRDRRRRRDDIIQDDzlLveTCfieeeedcdjIRRT8vqgEarcdiqkRChlzzJlsefeeirxbaf#PQXfLGJDXxT88888",
"888888888888TTRTRQTRRDRDDDSDAQDQJzLgcDlqqiddcbd.zRR8DCp.pigacDTDDKBdGvghBCrlmBdcgprajfqdmJDgWX888888",
"888888888888T88TDI8RDDDDDDDIGIIIJzCldlvHqrcirqqdBv8DFg#bI8Fz8DIIGIvDRRJDHalCggqgqEbgadre.LKJwT888888",
"8888888888888TT8QRITR4DD4IIIQDIAuLlsChduaqccrbrdfC8JfapnA8u8DDDDGGGGCGJCoDBfBgxmtpqgaPffhluHY8888888",
"8888888888888T8GTRDuIRDDISIAGIDIumCmmh.vhiqqbbrdeRIkerovkRI8RIDIGvAuf8LeE.8LfLLegqaxxf#BmlFNG8888888",
"88888888888888R88RIQDIDGDDIIJGGJJllLshiDhfaxxbbdcDABfanRGum8RzImzAmudAvfMv8ehLlleXxacybklCgM88888888",
"888888888888888RTSIQSDIIQGKGIIAzAJulmBgjhkja#qbccDAseqnlRlzRRzJlgCnAme8mnGTfmlXlghHwnadBCXgMT8888888",
"88888888888888ITRTSDISKQKIGzzGQAzQulBkkkhedhx#qbeRvjeqpb8RTIvGLBkhfqTvzxb8AFlL.kgxRu0aegjmHM88888888",
"8888888888888TDTTRIDQvKJAIQLmzGGGIDImgsskdibkaqbcvDmeraMD8ulCCks.jlCazuNIRluXlfqif88TpdsClBM48888888",
"8888888888888TITTRIIIQAGAALzJJzJADRGlgmujgarfbccavuBfdrnDKBgjhkjg.klJBleuduCsCeeGcDT8HqGlXsEY8888888",
"8888888888888TIDDRDIGQGALLllAALzDRDzuuumdccd.hccauGCgebb#DzCgkkBhhhkCG8SdkCeBlpzpeGu8JXLzvFqNT888888",
"888888888888R88RRSRRGQlsluuuLzuuAIzuLJlBdrcxueqa#jDj.feb#auAzAChhhhkmvIface.lLfmk8BA8TM4RIRfwY888888",
"88888888888888TTRRDGGJLLAIzuCCuuuzKGzJzCebqndAfkADmh.ffcbrpade.hh.fhhcrrxbrfucmf8ulD8INMgRGapO888888",
"88888888888L88TTRIzKGIJzszGRDJieiD88TRlCmILllvGvulBffeecbbaaxaqa#p#aaaaaxbdmAyIRBBgJDTwpoappoY888888",
"88888888888T8888TDIzzLuLlCSRT8vgm8TRIFe8RAjCuCzIGlsgfedirqaaabaa##aaaxaqqqfvla8IJKBgG8ooao#aEn888888",
"8888888888888888RKJLlBfdhfqsI8888TGldchfjmzLlCLDIzCheddbqqqbcqaap.eqaabqackvxczKv8CgDDwqpppp#N888888",
"8888888888888888RIDQlhfxquncElzg88uM#caa#obAlzzIIAkjfetbqaqx#aaa#Gybbqqqc.mgc.R8888T8Eoaax#poW888888",
"88888888888888TTRRDCBfdcgprabovoTAgbq#aano#koeRIGzmjhedaacaaap#xacbbcccbdjkcfR8TTTT8uMppxaE#M4888888",
"88888888888888TRDDKFggeeqxqbrp.pRg#qpaak8Abb#D8DRulChdd.eaaa###aqbbcddede.goDG8TTT88Bnpo#p#pN8888888",
"88888888888888RRDKJuLgdcxbqxqao.IudbEnca8xnavRTlEmluiAliaqbaaaaaabcceeeeeedeRg88T88Jywppp#pNX8888888",
"88888888888888RDRDLLLuBrabqqqaaknTkfcoqpzafhuIDK#aavShAdqaaqaxabbccdffefeeqm8R#888LBapp##nM588888888",
"88888888888888TRIIGumCkdqrcaxolqNuvhhd#bMbR8RAGId#aIvgI88vfq#aqbccdfh.geedqe8TfTIgipwo#nMX8888888888",
"88888888888888TTSIDGIzgcrreeaGkp#oRDgdjIRDIRIGAIz#nfDzl8TT8C#paabdfjulhfdccqaowajApp#nU8888888888888",
"888888888888888TR4IDIsiqdxbcqf##bq.8lfdvDDDRDGvAhMNlDlu8TT8ReEaaxfkklmhedbqaaqxaoaoppMT8888888888888",
"8888888888888888TTSIICiidqaaaduhecM8vBfzTIIRIIGAckIlggm8T88AkbaqqfkLkB.febq#axaxpapppM48888888888888",
"88888888888888888TRRDzfybbponkGdbfaG8msuRIADIIIzxgDkdiA8888GCfeqqfklkhhfgeaxqaqqxpp###M8888888888888",
"888888888888888888TDDJgieeqpb#ancad88JlAIDvGDIIm#ezadd88TJKJmjhecg.jlkf.hfbaqcqxq#e#xan0888888888888",
"8888888888888888888TRTLetgf#cxnqouzL8RLlGIIAIGGuqHWyEg8TTIAlmlmheegkLmerhgdxpqcaqqaqqpaNT88888888888",
"88888888888888888888RSJeefdn#bfmnfzee8JluDDILuvKwT888A8T8JgGIlkedhghumgahkdboaeapbxpxpxM488888888888",
"888888888888888888888RDXggixTPFPKcNYT8ILADDSzluId0884TT84JfymGAgpdhfBKf#.AfqM#fxncpp#ppM888888888888",
"888888888888888888888888gEM788888LZ888IuzIDIGLlJeO8TTTTT8WlnNXAiMpTT48xMj8sM.zeMgRnexqaM888888888888",
"88888888888888888888888888888888888888IIKGuLllzvlM38TTTT8TfaNGDaoNT88Sane8Bn.RzokIEpsnboV88888888888",
"88888888888888888888888888888888888888DGIuuuuLuABMX8TTTT8SBpMGGapN388lxnE8Cp#8l#clEn.EpxM88888888888",
"888888888888888888888888888888888888888KAKulLuuzucO88TTT8TB#N8IroN688Jiox8uqMRlapgoogpoaMI8888888888",
"888888888888888888888888888888888888888RAQJluuuAujEOT8TTTSm#oG8cNdU88GENPD8unnlxpeapaxnawP8888888888",
"8888888888888888888888888888888888888888IJulLuzvumenM78TT8IReNPDvuN88844gNv8lElapfEpaapV088888888888",
"888888888888888888888888888888888888888IJzuullzJzmkaoM78888mpndRvrN08T88en.8CMkqaentnabN888888888888",
"888888888888888888888888888888888888888GLlJzmLuAzzmepa#W788l#neTmboM8T88dw.8iNlxexqqbxE1888888888888",
"8888888888888888888888888888888888888888GLluuzLuzJuBd#rdqBmu#MfgDcnY8888eMGRweSoIokqqxM8888888888888",
"8888888888888888888888888888888888888888SumLmuulLAACgrqbfjmlqbzoDrN2TT88yN8vNRaAqunkxM48888888888888",
"888888888888888888888888888888888888888888LLlslAzummlkffe.hjkmXjhedfmeilgnnf#poo#popoM88888888888888",
"888888888888888888888888888888888888888888TAuXlzLlmCB.ff.ghhjkkkgccdfBflloqq##ppEpppEM88888888888888",
"88888888888888888888888888888888888888888888QJBCXmLul.hghhjggghhgerccdgLmbacxoo##pp#n188888888888888",
"888888888888888888888888888888888888888888888IlCCClums.ghjjggggffdrrdedjhfrq#p#ppp##MF88888888888888",
"8888888888888888888888888888888888888888888888TJluuLCkBhhjjgggf.edccddidcefxpp#ppop#M888888888888888",
"88888888888888888888888888888888888888888888888TIQAzLCkshghhfeedidccccrqbffpp#apoppoY888888888888888",
"88888888888888888888888888888888888888888888888888RJuuFsjef.ffgdoglcbccbqdc#opapoppNP888888888888888",
"8888888888888888888888888888888888888888888888888888RLulBgeggfg.ohzdiccbbqxpop#ppopNG888888888888888",
"888888888888888888888888888888888888888888888888888888IJCBffffdi#ifdecccqq#ppp#a#poN6888888888888888",
"888888888888888888888888888888888888888888888888888888888ICgeddcicccdcbqaaq##aa##ppN4888888888888888",
"88888888888888888888888888888888888888888888888888888888888JgdfdbbddedcbqqqaaaaapooNZ888888888888888",
"888888888888888888888888888888888888888888888888888888888888TZBfidrcdycbbqqbxaaapooNZ888888888888888",
"888888888888888888888888888888888888888888888888888888888888888Zgefgdbqqqabbqaa##ooNZ888888888888888",
"8888888888888888888888888888888888888888888888888888888888888888TS2gfiaqqbqbqaa#pooN8888888888888888",
"88888888888888888888888888888888888888888888888888888888888888888TT830q#aabcrxaxapN08888888888888888",
"888888888888888888888888888888888888888888888888888888888888888888888888I21yxpwnMN188888888888888888",
"888888888888888888888888888888888888888888888888888888888888888888888888888884DDI4888888888888888888",
"888888888888888888888888888888888888888888888888888888888888888888888888888888TT88888888888888888888"
};
