/* XPM */
static char *boson[] = {
/* width height num_colors chars_per_pixel */
"    32    32      204            2",
/* colors */
".. c #040204",
".# c #0476fc",
".a c #747e84",
".b c #a4b2ac",
".c c #c40204",
".d c #8c9694",
".e c #9c3e5c",
".f c #3c4244",
".g c #ac7e7c",
".h c #54565c",
".i c #a4a29c",
".j c #ac2634",
".k c #8c7e84",
".l c #b4cedc",
".m c #546694",
".n c #7c8a8c",
".o c #94a6a4",
".p c #e40204",
".q c #8c9e9c",
".r c #b4c2bc",
".s c #74668c",
".t c #6c7a7c",
".u c #747a9c",
".v c #0486fc",
".w c #b44e54",
".x c #acbab4",
".y c #e42224",
".z c #bc1a1c",
".A c #ccdee4",
".B c #5c6e9c",
".C c #849294",
".D c #9c9ea4",
".E c #0462fc",
".F c #a4aab4",
".G c #c4cecc",
".H c #7c8aa4",
".I c #e41614",
".J c #0472fc",
".K c #1c1e1c",
".L c #748284",
".M c #9c9a9c",
".N c #7c567c",
".O c #dc0204",
".P c #845a7c",
".Q c #b43244",
".R c #6c6e8c",
".S c #2c7edc",
".T c #b4b6b4",
".U c #949aa4",
".V c #646a94",
".W c #bccac4",
".X c #7c829c",
".Y c #cc6264",
".Z c #c4d6d4",
".0 c #6c6e94",
".1 c #acb2b4",
".2 c #8c96a4",
".3 c #a4868c",
".4 c #8c8a8c",
".5 c #848a94",
".6 c #9caeac",
".7 c #f40204",
".8 c #949e9c",
".9 c #b4bebc",
"#. c #74626c",
"## c #141214",
"#a c #5c6694",
"#b c #9ca6a4",
"#c c #bcc6c4",
"#d c #1492f4",
"#e c #d43234",
"#f c #046afc",
"#g c #2c7afc",
"#h c #146efc",
"#i c #8c6e74",
"#j c #74729c",
"#k c #7c6284",
"#l c #8c9a94",
"#m c #b4a2a4",
"#n c #c42624",
"#o c #acbec4",
"#p c #d4161c",
"#q c #2476fc",
"#r c #a4aebc",
"#s c #c4d2cc",
"#t c #848aa4",
"#u c #e41a1c",
"#v c #2c2e2c",
"#w c #7c828c",
"#x c #cc6e6c",
"#y c #6c7294",
"#z c #ac8e8c",
"#A c #f40a0c",
"#B c #94a29c",
"#C c #6c628c",
"#D c #9caaa4",
"#E c #646e9c",
"#F c #a4b6b4",
"#G c #cc0204",
"#H c #ac5664",
"#I c #64628c",
"#J c #ac9e9c",
"#K c #9c7e7c",
"#L c #bccecc",
"#M c #7c8e8c",
"#N c #b4c6c4",
"#O c #64769c",
"#P c #747e94",
"#Q c #048efc",
"#R c #dc3e3c",
"#S c #acbebc",
"#T c #9ca2b4",
"#U c #0c66fc",
"#V c #a4aeac",
"#W c #94a2b4",
"#X c #bc3244",
"#Y c #2c7efc",
"#Z c #7c869c",
"#0 c #ccd6d4",
"#1 c #c47674",
"#2 c #cc1e2c",
"#3 c #c44e4c",
"#4 c #b48684",
"#5 c #8c728c",
"#6 c #bc2a3c",
"#7 c #0c0a0c",
"#8 c #dc2a2c",
"#9 c #343634",
"a. c #d4e6e4",
"a# c #8c929c",
"aa c #846284",
"ab c #545e5c",
"ac c #d45e5c",
"ad c #d46a64",
"ae c #745e84",
"af c #c42634",
"ag c #ec1214",
"ah c #0c6efc",
"ai c #1c72fc",
"aj c #947274",
"ak c #ec1e1c",
"al c #a43e54",
"am c #6c7694",
"an c #ec0204",
"ao c #fc0204",
"ap c #1c92f4",
"aq c #0c6afc",
"ar c #546a9c",
"as c #1c2224",
"at c #6c7284",
"au c #acb6b4",
"av c #8c8e94",
"aw c #848e8c",
"ax c #acaeb4",
"ay c #5c6a94",
"az c #d4363c",
"aA c #848e9c",
"aB c #ccdadc",
"aC c #047afc",
"aD c #8c8284",
"aE c #9ca2a4",
"aF c #0466fc",
"aG c #1c7afc",
"aH c #dc0604",
"aI c #b43644",
"aJ c #8c9aa4",
"aK c #141614",
"aL c #c40e0c",
"aM c #1472fc",
"aN c #7c7e7c",
"aO c #247afc",
"aP c #64729c",
"aQ c #2c82fc",
"aR c #747e8c",
"aS c #a4b2b4",
"aT c #8c969c",
"aU c #a4a2a4",
"aV c #7c8a94",
"aW c #b4c2c4",
"aX c #acbabc",
"aY c #84929c",
"aZ c #c4ced4",
"a0 c #949eb4",
"a1 c #646a9c",
"a2 c #bccacc",
"a3 c #7c82a4",
"a4 c #6c6e9c",
"a5 c #949ea4",
"a6 c #b4bec4",
"a7 c #9ca6ac",
"a8 c #bcc6cc",
"a9 c #646e94",
"b. c #8c9a9c",
"b# c #c4d2d4",
"ba c #6c729c",
"bb c #94a2a4",
"bc c #9caaac",
"bd c #bcced4",
"be c #747e9c",
"bf c #a4aeb4",
"bg c #acb6bc",
"bh c #848e94",
"bi c #5c6a9c",
"bj c #848ea4",
/* pixels */
"#Y#q.E.E.E.EaF#U#h#q#h.EaF#Y#g#hai#Y#Uaq#U.E.E.EaFaF.E.E.E.EaFaq",
"#faM#faF#faF#faF#f#f#f#fahaOaQaO#haGah#faF#f.JahaFaF#faFaFaFaFaF",
".#.#.#.#.J.J.#.Jbd#J.I.p#p.J.J.#.#.J.#.#.J.J.#.#.J.#.J.#.#.#.#.J",
"aCaCaCaCaCaCaCaC.laX.i.y#8.S.#aCaCaC.#aCaCaC.#aCaCaCaCaC.#aCaCaC",
".v.v.v.v.v.v.v.v.vb#a2#1#A.I#5.v.v.v.v.v.v.v.v.v.v.v.v.v.v.v.v.v",
".v#Q.v#Q.v#Q#d#dapaWaWaU.3aj#w#Q#Q.v#Q.v#Q#Q.v#Q#Q.v#Q.v#Q#Q.v#Q",
"ararar#Oa2#L.2aVbha5bcbgbcb..5.s.P#kbaaPbabaaPbaa4aPa4#E#E.B#E.B",
"bi#a#a#a#Lbda8.naV.nbb#m#Rakagaoaoaobaa4babaa4ba#Ea4.0#Ea9#E.Va1",
"#aay#Cala#a2bda8.n.Cb.#u.Oan.7.7anan.Pa4#ya4#ya4#y#E#Ea9a4.Va1.B",
"#a#a#I.e#Hava6aWaX.naT#3aoao#G.c.c.zba.0#Ea4ba#E#ta4.0#E.V#E.V.V",
"#abi.N#2aH#.aWa6aZ.qa7.D.gaz.w#4.F#Va5#M.Xbeba#T.8ba#E.0#Ea9a1.B",
"#a#a#a#aa1bibj#o.9bcaEb..nab.f#v.9#N#V.1bba5.C.a#y#E.0#Ea4a9#E.V",
"#aa1ay#abi.V.ubg#Lbg.C#9aK#7....bfaXbc#Vbba5.taRa4baa4a9#E.0#Ea1",
"ay#abia1#WaW.Zb##S#s.8aKaKaK##...Kbcau.bbc#Bb..da4a9a4.0a4a1a4a9",
"#aa1aya9aZa2b##0bca2aW####aK##....a#.1aS#baEa5b.bea9a4#Ea9a9.Va4",
"#aaya1.F#s.Ga8a8aW#Vau.daK##....#7aw#V.1#D#z.y#Aaaa9a4a9a4a4#E#E",
"aya1#abe#NaZaW.x.r#Vbc.xbcas.h.6.oa5#8aoaoaoaoao.7#Ea4a9a4.Vay.0",
"aybi#aa1.r#Lb#.9.9au#D.1#V#B.bbc#Wb..O#naoao.7an.O#E.0#Ea4a9a1#E",
"a1#aa9.Vbb#caBb#.9aXau#FaS#ba7b.#bbb#Aaoao.p#G.j.V.0#Ea9a4#E.0.V",
"#aa1aNaNaNaXaB.AaXaXaS#Vbca5bba7#V#VaoaoanaL#Kama9a4a1.0#E.0#Ea1",
"#a#aat.R#Ea9#c.9#b#B.8a5.8auaWaWaJ.Ca7.M.1aX.obb#a#Ea9#abia4#aa9",
"#a#a#aa9a1#aa7#baw.X#waA.Ua2.Za.aYb.a5aYbcaXbfbf#E.0#E#aa9a1aya1",
"bi#a.m#a#a#Ea9.m#aa9.V#Eay#rb##0bgaVbhbhb.#VbcaSbc#Za#a9#a#Ea4.V",
"#a#abi#a#a#aa1aya1#E#aa9a4aPaWaZb#.q#w.na5.obcbf.1bcaJ#ibaa9a4#a",
"a1#E.Vbiaya1aya4.V#E#aa4#E.Vbi#LaBb##w.n.CaTbc#Va2.YaoaD.ka9a1ay",
".m#a#a#aaya4#a.ma1#aa9a4#aafaoava2aWbc.L.C.Ca5.8.9#caxaoaz#Pa4ay",
"a1#E.m#E.Vbiay.Vay.m#a#E#a.QaI.4a2aW#o.C.d#b#l.8aW.W.Tad.M#e#ya4",
".m#a.V.ma1#a#aa1#aa1a1#aa1#X#6#pa3#o.9aS.dbha4.m#ZaW.GacaoaEaY#a",
"#abi#a#a#aa1ay.ma1#aa9bi#a#aaeaeaya0aXa7#Pam#aa1a4#c.9#z#xaTa9.V",
"#Eaya1.Vbi#a.m#a#abi#a#aay.V#E#E#aa4aJa9a9a1ayay.VaPaW#S.2#a#a#a",
"a4#a#a#E.V#aa1#aaya1.V.ma4.maya9.V.V#a.ma1.V#Ea4a1a9.Ha0a9#Eay#a",
"#E.m#a#a#Ea1.m.m#aaya4.m#abi#a#abi.ma4.V#aa4#a#Ea9#j#E#aaya1#abi"
};
